<svg id="Layer_1" data-name="Layer 1" xmlns="http://www.w3.org/2000/svg" viewBox="0 0 160 160"><defs><style>.cls-1{fill:#1f1f2a;}.cls-2{fill:#d64140;}.cls-3{fill:#c13a3c;}.cls-4{fill:#9e2d38;}</style></defs><title>Logo</title><path class="cls-1" d="M31.27,104.68a4.07,4.07,0,0,0-1.95.46,3.57,3.57,0,0,0-1.39,1.28v-6.15H25.41v14.9h2.52v-5.79a2.66,2.66,0,0,1,.71-1.95,2.43,2.43,0,0,1,1.86-.74,1.77,1.77,0,0,1,1.44.55A2.79,2.79,0,0,1,32.4,109v6.15h2.54v-6.28C34.94,106.09,33.71,104.68,31.27,104.68Z"/><rect class="cls-1" x="37.47" y="100.31" width="2.82" height="2.49"/><rect class="cls-1" x="37.63" y="104.95" width="2.51" height="10.23"/><path class="cls-1" d="M50.29,106.48A3.34,3.34,0,0,0,49,105.16a4.16,4.16,0,0,0-2-.48,4.42,4.42,0,0,0-2.38.64,4.29,4.29,0,0,0-1.62,1.8,6.41,6.41,0,0,0,0,5.33,4.23,4.23,0,0,0,1.62,1.8,4.42,4.42,0,0,0,2.38.64,3.85,3.85,0,0,0,2-.52A3.51,3.51,0,0,0,50.29,113v2a2.4,2.4,0,0,1-2.73,2.71,7.93,7.93,0,0,1-3.71-1l-.41,1.93a8.58,8.58,0,0,0,4.18,1,5.44,5.44,0,0,0,3.87-1.24,4.71,4.71,0,0,0,1.32-3.62V105H50.29Zm-.72,5.59a2.76,2.76,0,0,1-4,0,4,4,0,0,1,0-4.57,2.46,2.46,0,0,1,2-.83,2.44,2.44,0,0,1,2,.83,4,4,0,0,1,0,4.57Z"/><path class="cls-1" d="M61.39,104.68a4.06,4.06,0,0,0-1.94.46,3.59,3.59,0,0,0-1.4,1.28v-6.15H55.54v14.9h2.51v-5.79a2.7,2.7,0,0,1,.71-1.95,2.43,2.43,0,0,1,1.86-.74,1.77,1.77,0,0,1,1.44.55,2.79,2.79,0,0,1,.47,1.78v6.15h2.53v-6.28C65.06,106.09,63.84,104.68,61.39,104.68Z"/><path class="cls-1" d="M75.11,105.33a5.55,5.55,0,0,0-2.72-.65,5.63,5.63,0,0,0-2.74.65,4.39,4.39,0,0,0-1.82,1.85,5.94,5.94,0,0,0-.64,2.83,5.87,5.87,0,0,0,.64,2.82,4.41,4.41,0,0,0,1.82,1.86,5.63,5.63,0,0,0,2.74.64,5.55,5.55,0,0,0,2.72-.64,4.45,4.45,0,0,0,1.81-1.86,5.87,5.87,0,0,0,.64-2.82,5.94,5.94,0,0,0-.64-2.83A4.42,4.42,0,0,0,75.11,105.33Zm-.76,7.18a2.72,2.72,0,0,1-3.93,0,4.9,4.9,0,0,1,0-5,2.65,2.65,0,0,1,3.91,0,4.9,4.9,0,0,1,0,5Z"/><path class="cls-1" d="M83.38,105.23a3,3,0,0,0-1.22,1.52L82,105H79.59a24.75,24.75,0,0,1,.16,2.89v7.33h2.51v-5.53a2.85,2.85,0,0,1,.68-2,2.53,2.53,0,0,1,2-.75,3.62,3.62,0,0,1,1.33.26l0-2.31a3,3,0,0,0-1-.16A3.44,3.44,0,0,0,83.38,105.23Z"/><path class="cls-1" d="M94.74,106.42a3.16,3.16,0,0,0-1.33-1.28,4,4,0,0,0-2-.46,4.31,4.31,0,0,0-2.37.66,4.39,4.39,0,0,0-1.6,1.85,7.06,7.06,0,0,0,0,5.58,4.43,4.43,0,0,0,1.61,1.9,4.27,4.27,0,0,0,2.35.66,4,4,0,0,0,2-.47,3.3,3.3,0,0,0,1.34-1.33v1.64h2.49v-14.9H94.74Zm-.66,6.06a2.61,2.61,0,0,1-3.91,0,4,4,0,0,1-.7-2.49,3.79,3.79,0,0,1,.7-2.44,2.4,2.4,0,0,1,2-.86,2.33,2.33,0,0,1,1.94.87,3.88,3.88,0,0,1,.69,2.47A3.84,3.84,0,0,1,94.08,112.48Z"/><path class="cls-1" d="M104.43,104.68a5,5,0,0,0-2.58.68,4.66,4.66,0,0,0-1.76,1.89,6,6,0,0,0-.63,2.78,5.22,5.22,0,0,0,1.44,3.89,5.41,5.41,0,0,0,3.95,1.41A6.69,6.69,0,0,0,107,115a5.83,5.83,0,0,0,1.79-.94l-.73-1.74a5,5,0,0,1-3.12,1.09,2.91,2.91,0,0,1-2.2-.78,3.75,3.75,0,0,1-.82-2.42h7v-.38a5.45,5.45,0,0,0-1.22-3.76A4.26,4.26,0,0,0,104.43,104.68ZM102,108.83a3,3,0,0,1,.82-1.73,2.33,2.33,0,0,1,1.66-.59,2.15,2.15,0,0,1,1.59.58,2.84,2.84,0,0,1,.69,1.74Z"/><path class="cls-1" d="M114.76,105.23a3,3,0,0,0-1.22,1.52l-.2-1.8H111a22.73,22.73,0,0,1,.16,2.89v7.33h2.51v-5.53a2.85,2.85,0,0,1,.68-2,2.53,2.53,0,0,1,2-.75,3.58,3.58,0,0,1,1.33.26l0-2.31a3,3,0,0,0-1-.16A3.44,3.44,0,0,0,114.76,105.23Z"/><rect class="cls-1" x="118.32" y="112.34" width="2.84" height="2.83"/><rect class="cls-1" x="123.51" y="100.31" width="2.82" height="2.49"/><rect class="cls-1" x="123.67" y="104.95" width="2.51" height="10.23"/><path class="cls-1" d="M138.13,107.18a4.45,4.45,0,0,0-1.82-1.85,5.54,5.54,0,0,0-2.71-.65,5.67,5.67,0,0,0-2.75.65,4.45,4.45,0,0,0-1.82,1.85,5.94,5.94,0,0,0-.64,2.83,5.87,5.87,0,0,0,.64,2.82,4.47,4.47,0,0,0,1.82,1.86,5.67,5.67,0,0,0,2.75.64,5.54,5.54,0,0,0,2.71-.64,4.47,4.47,0,0,0,1.82-1.86,6,6,0,0,0,.64-2.82A6.06,6.06,0,0,0,138.13,107.18Zm-2.58,5.33a2.72,2.72,0,0,1-3.93,0,4.9,4.9,0,0,1,0-5,2.37,2.37,0,0,1,2-.86,2.32,2.32,0,0,1,1.94.86,4.9,4.9,0,0,1,0,5Z"/><path class="cls-1" d="M44.9,73h0a3.09,3.09,0,1,0,0,6.17h0a3.09,3.09,0,1,0,0-6.17Z"/><circle class="cls-1" cx="67" cy="76.08" r="3.09"/><circle class="cls-1" cx="55.97" cy="76.08" r="3.09"/><path class="cls-1" d="M30.5,49.57a6.71,6.71,0,0,0-2,5.25v6.4a5.94,5.94,0,0,1-.61,3.11,3.74,3.74,0,0,1-2.21,1.39l-.41.12A1.71,1.71,0,0,0,24,67.48a1.73,1.73,0,0,0,1.22,1.65l.41.12a3.65,3.65,0,0,1,2.21,1.39,5.94,5.94,0,0,1,.61,3.11v6.39a6.77,6.77,0,0,0,2,5.25,8,8,0,0,0,5.66,1.81h2.74V83H37a2.82,2.82,0,0,1-2.21-1,4.25,4.25,0,0,1-.88-2.87V72.51a5.35,5.35,0,0,0-1-3.37,4.22,4.22,0,0,0-2.49-1.66,4.16,4.16,0,0,0,2.49-1.65,5.38,5.38,0,0,0,1-3.38V55.84A4.23,4.23,0,0,1,34.8,53,2.8,2.8,0,0,1,37,52h1.85V47.76H36.12A8.13,8.13,0,0,0,30.5,49.57Z"/><path class="cls-1" d="M138.34,65.84l-.41-.12a3.68,3.68,0,0,1-2.2-1.39,5.92,5.92,0,0,1-.62-3.11v-6.4a6.71,6.71,0,0,0-2-5.25,8.13,8.13,0,0,0-5.62-1.81h-2.74V52h1.9a2.76,2.76,0,0,1,2.16,1,4.23,4.23,0,0,1,.88,2.87v6.61a5.38,5.38,0,0,0,1,3.38,4.16,4.16,0,0,0,2.49,1.65,4.22,4.22,0,0,0-2.49,1.66,5.35,5.35,0,0,0-1,3.37v6.62A4.25,4.25,0,0,1,128.8,82a2.78,2.78,0,0,1-2.16,1h-1.9V87.2h2.74a8.06,8.06,0,0,0,5.67-1.81,6.76,6.76,0,0,0,2-5.25V73.75a5.92,5.92,0,0,1,.62-3.11,3.6,3.6,0,0,1,2.2-1.39l.41-.12a1.73,1.73,0,0,0,1.23-1.65A1.7,1.7,0,0,0,138.34,65.84Z"/><path class="cls-2" d="M121.58,57.59a11.78,11.78,0,0,1-.44,3.49,15.65,15.65,0,0,1-1,2.55,17.45,17.45,0,0,1-1,1.87l-.14.22c-.12.21-.25.41-.39.61-.31.48-.63,1-1,1.41A32.26,32.26,0,0,1,114,72c-.41.41-.84.81-1.28,1.2l-.63.56c-.72.62-1.45,1.22-2.2,1.79l.13-.2.14-.23q.47-.78.84-1.56a19.13,19.13,0,0,0,1.3-3.32,13.85,13.85,0,0,0,.51-4.12,13,13,0,0,0-.58-3.49,11.72,11.72,0,0,0-.83-2.08,8.94,8.94,0,0,0-.44-.8,11.87,11.87,0,0,0-1.48-2l-.09-.09a7,7,0,0,0-.85-.79,5.45,5.45,0,0,0-.46-.38,11.45,11.45,0,0,0-5.57-2.34l-.26,0c-.31,0-.65-.05-1-.05a10.32,10.32,0,0,0-1.11.06,11,11,0,0,0-3,.81l-.35.15-.38.18a13.53,13.53,0,0,0-1.45.84,4.62,4.62,0,0,0-.4.27l-.34.25c-.29.21-.57.43-.83.65-.27-.22-.54-.44-.82-.65l-.37-.26-.37-.25-.8-.49a4.16,4.16,0,0,0-.42-.23l-.35-.18-.58-.27-.32-.13a11.36,11.36,0,0,0-1.61-.49l-.4-.08c0-.12.08-.23.13-.35s0,0,0-.06A10.1,10.1,0,0,1,89.22,51c.12-.15.24-.29.37-.43a9.54,9.54,0,0,1,6-3,7.32,7.32,0,0,1,1.93,0A9.71,9.71,0,0,1,101.2,49c.33.21.66.43,1,.66a15,15,0,0,1,1.49,1.28.75.75,0,0,0,.52.21.73.73,0,0,0,.52-.21l0,0a3.8,3.8,0,0,1,.37-.33,11.44,11.44,0,0,1,1.08-.9l.11-.08a9.69,9.69,0,0,1,1.09-.71,8.81,8.81,0,0,1,5.41-1.33,9.57,9.57,0,0,1,6,3A11,11,0,0,1,121.58,57.59Z"/><path class="cls-3" d="M108.57,56.86a5.45,5.45,0,0,0-.46-.38,11.45,11.45,0,0,0-5.57-2.34l-.26,0c-.31,0-.65-.05-1-.05a10.32,10.32,0,0,0-1.11.06l-2.7-6.53A9.71,9.71,0,0,1,101.2,49c.33.21.66.43,1,.66a15,15,0,0,1,1.49,1.28.75.75,0,0,0,.52.21.73.73,0,0,0,.52-.21l0,0a3.8,3.8,0,0,1,.37-.33,11.44,11.44,0,0,1,1.08-.9l.11-.08a9.69,9.69,0,0,1,1.09-.71,12.53,12.53,0,0,0,1.17,8Z"/><path class="cls-3" d="M120.19,63.63a17.45,17.45,0,0,1-1,1.87l-.14.22c-.12.21-.25.41-.39.61-.31.48-.63,1-1,1.41A32.26,32.26,0,0,1,114,72c-.41.41-.84.81-1.28,1.2l-1.72.36a19.13,19.13,0,0,0,1.3-3.32,13.85,13.85,0,0,0,.51-4.12,13,13,0,0,0-.58-3.49,11.72,11.72,0,0,0-.83-2.08,12.39,12.39,0,0,0,8.24,3.12Z"/><path class="cls-2" d="M110.84,66.16a14.89,14.89,0,0,1-2.37,7.91,2.53,2.53,0,0,1-.13.22A30.07,30.07,0,0,1,105,78.78a38.83,38.83,0,0,1-3.62,3.52,48.79,48.79,0,0,1-6.61,4.82h0a2.66,2.66,0,0,1-2.6,0h0c-.91-.55-1.8-1.13-2.67-1.75h0a3.37,3.37,0,0,1-.31-.21q-.56-.39-1.11-.81l0,0c-.85-.65-1.69-1.32-2.5-2a33.89,33.89,0,0,1-7-8,2.53,2.53,0,0,1-.13-.22,15,15,0,0,1-2.38-7.91,11,11,0,0,1,2.81-7.06,9.52,9.52,0,0,1,6-3,6.62,6.62,0,0,1,.77,0,8.2,8.2,0,0,1,1.32.11,9,9,0,0,1,1.76.49l.29.13.49.22.22.11.07,0a3.9,3.9,0,0,1,.35.19l.68.41.33.23.33.23a15,15,0,0,1,1.49,1.28.75.75,0,0,0,.18.13.81.81,0,0,0,.34.08A.73.73,0,0,0,94,59.5a15,15,0,0,1,1.49-1.28l.33-.23c.1-.08.21-.15.33-.23A12.05,12.05,0,0,1,97.38,57l.3-.14.3-.14a8.59,8.59,0,0,1,3.32-.7,6.62,6.62,0,0,1,.77,0A9.24,9.24,0,0,1,106.82,58a7.74,7.74,0,0,1,1,.89,1.75,1.75,0,0,1,.2.19A10.9,10.9,0,0,1,110.84,66.16Z"/><path class="cls-3" d="M110.84,66.16a14.89,14.89,0,0,1-2.37,7.91,2.53,2.53,0,0,1-.13.22A30.07,30.07,0,0,1,105,78.78a38.83,38.83,0,0,1-3.62,3.52,48.79,48.79,0,0,1-6.61,4.82h0a2.66,2.66,0,0,1-2.6,0h0c-.91-.55-1.8-1.13-2.67-1.75h0a3.37,3.37,0,0,1-.31-.21q-.56-.39-1.11-.81l0,0a35.69,35.69,0,0,0,5.1-24.69.81.81,0,0,0,.34.08A.73.73,0,0,0,94,59.5a15,15,0,0,1,1.49-1.28l.33-.23c.1-.08.21-.15.33-.23A12.05,12.05,0,0,1,97.38,57l.3-.14.3-.14a8.59,8.59,0,0,1,3.32-.7,6.62,6.62,0,0,1,.77,0A9.24,9.24,0,0,1,106.82,58a7.74,7.74,0,0,1,1,.89,1.75,1.75,0,0,1,.2.19A10.9,10.9,0,0,1,110.84,66.16Z"/><path class="cls-4" d="M110.84,66.16a14.89,14.89,0,0,1-2.37,7.91,2.53,2.53,0,0,1-.13.22A30.07,30.07,0,0,1,105,78.78a38.83,38.83,0,0,1-3.62,3.52,48.79,48.79,0,0,1-6.61,4.82h0a2.66,2.66,0,0,1-2.6,0h0c-1-.62-2-1.27-3-2q-.56-.39-1.11-.81C99,75.06,104.31,65.48,106.82,58a7.74,7.74,0,0,1,1,.89,1.75,1.75,0,0,1,.2.19A10.9,10.9,0,0,1,110.84,66.16Z"/><path class="cls-4" d="M101.2,49a35.75,35.75,0,0,0,1.34,5.15l-.26,0c-.31,0-.65,0-1,0a10.42,10.42,0,0,0-4.1.87l-.35.15-.38.18A13.53,13.53,0,0,0,95,56.1a4.62,4.62,0,0,0-.4.27l-.34.25c-.29.21-.57.43-.83.65-.27-.22-.54-.44-.82-.65l-.37-.26-.37-.25-.8-.49a4.16,4.16,0,0,0-.42-.23l-.35-.18-.58-.27-.32-.13a11.36,11.36,0,0,0-1.61-.49l-.4-.08c0-.12.08-.23.13-.35s0,0,0-.06A10.1,10.1,0,0,1,89.22,51c.12-.15.24-.29.37-.43a9.54,9.54,0,0,1,6-3A9,9,0,0,1,101.2,49Z"/><path class="cls-4" d="M114,72c-.61.61-1.25,1.19-1.91,1.76s-1.45,1.22-2.2,1.79l.13-.2.14-.23a20.75,20.75,0,0,0,2.14-4.88c.48.52,1,1,1.49,1.55Z"/></svg>